<svg width="257" height="49" viewBox="0 0 257 49" fill="none" xmlns="http://www.w3.org/2000/svg">
<path d="M52.642 37V15.1818H65.8097V17.5256H55.2841V24.8977H65.1278V27.2415H55.2841V34.6562H65.9801V37H52.642ZM75.0462 37.3835C74.0092 37.3835 73.0682 37.1882 72.223 36.7976C71.3778 36.3999 70.7067 35.8281 70.2095 35.0824C69.7124 34.3295 69.4638 33.4205 69.4638 32.3551C69.4638 31.4176 69.6484 30.6577 70.0178 30.0753C70.3871 29.4858 70.8807 29.0241 71.4986 28.6903C72.1165 28.3565 72.7983 28.108 73.544 27.9446C74.2969 27.7741 75.0533 27.6392 75.8132 27.5398C76.8075 27.4119 77.6136 27.3161 78.2315 27.2521C78.8565 27.1811 79.3111 27.0639 79.5952 26.9006C79.8864 26.7372 80.032 26.4531 80.032 26.0483V25.9631C80.032 24.9119 79.7443 24.0952 79.169 23.5128C78.6009 22.9304 77.7379 22.6392 76.5803 22.6392C75.38 22.6392 74.4389 22.902 73.7571 23.4276C73.0753 23.9531 72.5959 24.5142 72.3189 25.1108L69.9325 24.2585C70.3587 23.2642 70.9268 22.4901 71.6371 21.9361C72.3544 21.375 73.1357 20.9844 73.9808 20.7642C74.8331 20.5369 75.6712 20.4233 76.495 20.4233C77.0206 20.4233 77.6243 20.4872 78.3061 20.6151C78.995 20.7358 79.6591 20.9879 80.2983 21.3714C80.9446 21.755 81.4808 22.3338 81.907 23.108C82.3331 23.8821 82.5462 24.919 82.5462 26.2188V37H80.032V34.7841H79.9041C79.7337 35.1392 79.4496 35.5192 79.0518 35.924C78.6541 36.3288 78.125 36.6733 77.4645 36.9574C76.804 37.2415 75.9979 37.3835 75.0462 37.3835ZM75.4297 35.125C76.424 35.125 77.2621 34.9297 77.9439 34.5391C78.6328 34.1484 79.1513 33.6442 79.4993 33.0263C79.8544 32.4084 80.032 31.7585 80.032 31.0767V28.7756C79.9254 28.9034 79.6911 29.0206 79.3288 29.1271C78.9737 29.2266 78.5618 29.3153 78.093 29.3935C77.6314 29.4645 77.1804 29.5284 76.7401 29.5852C76.3068 29.6349 75.9553 29.6776 75.6854 29.7131C75.032 29.7983 74.4212 29.9368 73.853 30.1286C73.2919 30.3132 72.8374 30.5937 72.4893 30.9702C72.1484 31.3395 71.978 31.8437 71.978 32.483C71.978 33.3565 72.3011 34.017 72.9474 34.4645C73.6009 34.9048 74.4283 35.125 75.4297 35.125ZM98.726 24.3011L96.4675 24.9403C96.3255 24.5639 96.1159 24.1982 95.839 23.843C95.5691 23.4808 95.1998 23.1825 94.731 22.9482C94.2623 22.7138 93.6621 22.5966 92.9306 22.5966C91.9292 22.5966 91.0946 22.8274 90.427 23.2891C89.7665 23.7436 89.4363 24.3224 89.4363 25.0256C89.4363 25.6506 89.6635 26.1442 90.1181 26.5064C90.5726 26.8686 91.2828 27.1705 92.2488 27.4119L94.6777 28.0085C96.1408 28.3636 97.231 28.907 97.9483 29.6385C98.6657 30.3629 99.0243 31.2969 99.0243 32.4403C99.0243 33.3778 98.7544 34.2159 98.2147 34.9545C97.682 35.6932 96.9363 36.2756 95.9775 36.7017C95.0186 37.1278 93.9036 37.3409 92.6323 37.3409C90.9632 37.3409 89.5819 36.9787 88.4881 36.2543C87.3944 35.5298 86.7019 34.4716 86.4107 33.0795L88.7971 32.483C89.0243 33.3636 89.454 34.0241 90.0861 34.4645C90.7253 34.9048 91.5598 35.125 92.5897 35.125C93.7615 35.125 94.6919 34.8764 95.3809 34.3793C96.0769 33.875 96.4249 33.2713 96.4249 32.5682C96.4249 32 96.226 31.5241 95.8283 31.1406C95.4306 30.75 94.8198 30.4588 93.9959 30.267L91.2686 29.6278C89.7701 29.2727 88.6692 28.7223 87.9661 27.9766C87.2701 27.2237 86.9221 26.2827 86.9221 25.1534C86.9221 24.2301 87.1813 23.4134 87.6998 22.7031C88.2253 21.9929 88.9391 21.4354 89.8411 21.0305C90.7502 20.6257 91.78 20.4233 92.9306 20.4233C94.5499 20.4233 95.8212 20.7784 96.7445 21.4886C97.6749 22.1989 98.3354 23.1364 98.726 24.3011ZM104.428 43.1364C104.002 43.1364 103.622 43.1009 103.288 43.0298C102.955 42.9659 102.724 42.902 102.596 42.8381L103.235 40.6222C103.846 40.7784 104.386 40.8352 104.854 40.7926C105.323 40.75 105.739 40.5405 106.101 40.1641C106.47 39.7947 106.808 39.1946 107.113 38.3636L107.582 37.0852L101.531 20.6364H104.258L108.775 33.6761H108.945L113.462 20.6364H116.19L109.244 39.3864C108.931 40.2315 108.544 40.9311 108.082 41.4851C107.621 42.0462 107.085 42.4616 106.474 42.7315C105.87 43.0014 105.188 43.1364 104.428 43.1364ZM130.929 15.1818V37H128.287V15.1818H130.929ZM138.399 27.1562V37H135.885V20.6364H138.314V23.1932H138.527C138.911 22.3622 139.493 21.6946 140.274 21.1903C141.056 20.679 142.064 20.4233 143.3 20.4233C144.408 20.4233 145.377 20.6506 146.208 21.1051C147.039 21.5526 147.686 22.2344 148.147 23.1506C148.609 24.0597 148.84 25.2102 148.84 26.6023V37H146.325V26.7727C146.325 25.4872 145.992 24.4858 145.324 23.7685C144.656 23.044 143.74 22.6818 142.575 22.6818C141.773 22.6818 141.056 22.8558 140.423 23.2038C139.798 23.5518 139.305 24.0597 138.943 24.7273C138.58 25.3949 138.399 26.2045 138.399 27.1562ZM160.55 20.6364V22.767H152.07V20.6364H160.55ZM154.542 16.7159H157.056V32.3125C157.056 33.0227 157.159 33.5554 157.365 33.9105C157.578 34.2585 157.848 34.4929 158.175 34.6136C158.509 34.7273 158.86 34.7841 159.229 34.7841C159.506 34.7841 159.734 34.7699 159.911 34.7415C160.089 34.706 160.231 34.6776 160.337 34.6562L160.849 36.9148C160.678 36.9787 160.44 37.0426 160.135 37.1065C159.83 37.1776 159.442 37.2131 158.974 37.2131C158.263 37.2131 157.567 37.0604 156.886 36.755C156.211 36.4496 155.65 35.9844 155.202 35.3594C154.762 34.7344 154.542 33.946 154.542 32.9943V16.7159ZM171.017 37.3409C169.441 37.3409 168.081 36.9929 166.937 36.2969C165.801 35.5938 164.924 34.6136 164.306 33.3565C163.695 32.0923 163.39 30.6222 163.39 28.946C163.39 27.2699 163.695 25.7926 164.306 24.5142C164.924 23.2287 165.783 22.2273 166.884 21.5099C167.992 20.7855 169.284 20.4233 170.762 20.4233C171.614 20.4233 172.456 20.5653 173.287 20.8494C174.118 21.1335 174.874 21.5952 175.556 22.2344C176.238 22.8665 176.781 23.7045 177.186 24.7486C177.591 25.7926 177.793 27.0781 177.793 28.6051V29.6705H165.179V27.4972H175.236C175.236 26.5739 175.051 25.75 174.682 25.0256C174.32 24.3011 173.801 23.7294 173.127 23.3104C172.459 22.8913 171.671 22.6818 170.762 22.6818C169.76 22.6818 168.894 22.9304 168.162 23.4276C167.438 23.9176 166.88 24.5568 166.49 25.3452C166.099 26.1335 165.904 26.9787 165.904 27.8807V29.3295C165.904 30.5653 166.117 31.6129 166.543 32.4723C166.976 33.3246 167.576 33.9744 168.343 34.4219C169.11 34.8622 170.002 35.0824 171.017 35.0824C171.678 35.0824 172.275 34.9901 172.807 34.8054C173.347 34.6136 173.812 34.3295 174.203 33.9531C174.593 33.5696 174.895 33.0937 175.108 32.5256L177.537 33.2074C177.282 34.0312 176.852 34.7557 176.248 35.3807C175.645 35.9986 174.899 36.4815 174.011 36.8295C173.123 37.1705 172.125 37.3409 171.017 37.3409ZM181.618 37V20.6364H184.047V23.108H184.217C184.515 22.2983 185.055 21.6413 185.836 21.1371C186.618 20.6328 187.498 20.3807 188.478 20.3807C188.663 20.3807 188.894 20.3842 189.171 20.3913C189.448 20.3984 189.657 20.4091 189.799 20.4233V22.9801C189.714 22.9588 189.519 22.9268 189.213 22.8842C188.915 22.8345 188.599 22.8097 188.265 22.8097C187.47 22.8097 186.76 22.9766 186.135 23.3104C185.517 23.6371 185.027 24.0916 184.664 24.674C184.309 25.2493 184.132 25.9062 184.132 26.6449V37H181.618ZM206.658 20.6364L200.607 37H198.05L191.999 20.6364H194.727L199.244 33.6761H199.414L203.931 20.6364H206.658ZM209.977 37V20.6364H212.491V37H209.977ZM211.255 17.9091C210.765 17.9091 210.343 17.7422 209.988 17.4084C209.64 17.0746 209.466 16.6733 209.466 16.2045C209.466 15.7358 209.64 15.3345 209.988 15.0007C210.343 14.6669 210.765 14.5 211.255 14.5C211.745 14.5 212.164 14.6669 212.512 15.0007C212.868 15.3345 213.045 15.7358 213.045 16.2045C213.045 16.6733 212.868 17.0746 212.512 17.4084C212.164 17.7422 211.745 17.9091 211.255 17.9091ZM223.957 37.3409C222.38 37.3409 221.02 36.9929 219.877 36.2969C218.74 35.5938 217.863 34.6136 217.245 33.3565C216.634 32.0923 216.329 30.6222 216.329 28.946C216.329 27.2699 216.634 25.7926 217.245 24.5142C217.863 23.2287 218.722 22.2273 219.823 21.5099C220.931 20.7855 222.224 20.4233 223.701 20.4233C224.553 20.4233 225.395 20.5653 226.226 20.8494C227.057 21.1335 227.813 21.5952 228.495 22.2344C229.177 22.8665 229.72 23.7045 230.125 24.7486C230.53 25.7926 230.732 27.0781 230.732 28.6051V29.6705H218.119V27.4972H228.176C228.176 26.5739 227.991 25.75 227.622 25.0256C227.259 24.3011 226.741 23.7294 226.066 23.3104C225.399 22.8913 224.61 22.6818 223.701 22.6818C222.7 22.6818 221.833 22.9304 221.102 23.4276C220.377 23.9176 219.82 24.5568 219.429 25.3452C219.039 26.1335 218.843 26.9787 218.843 27.8807V29.3295C218.843 30.5653 219.056 31.6129 219.482 32.4723C219.916 33.3246 220.516 33.9744 221.283 34.4219C222.05 34.8622 222.941 35.0824 223.957 35.0824C224.617 35.0824 225.214 34.9901 225.747 34.8054C226.286 34.6136 226.752 34.3295 227.142 33.9531C227.533 33.5696 227.835 33.0937 228.048 32.5256L230.477 33.2074C230.221 34.0312 229.791 34.7557 229.188 35.3807C228.584 35.9986 227.838 36.4815 226.95 36.8295C226.063 37.1705 225.065 37.3409 223.957 37.3409ZM238.264 37L233.279 20.6364H235.921L239.458 33.1648H239.628L243.122 20.6364H245.807L249.259 33.1222H249.429L252.966 20.6364H255.608L250.622 37H248.151L244.571 24.429H244.316L240.736 37H238.264Z" fill="#222629"/>
<path d="M51.642 36V14.1818H64.8097V16.5256H54.2841V23.8977H64.1278V26.2415H54.2841V33.6562H64.9801V36H51.642ZM74.0462 36.3835C73.0092 36.3835 72.0682 36.1882 71.223 35.7976C70.3778 35.3999 69.7067 34.8281 69.2095 34.0824C68.7124 33.3295 68.4638 32.4205 68.4638 31.3551C68.4638 30.4176 68.6484 29.6577 69.0178 29.0753C69.3871 28.4858 69.8807 28.0241 70.4986 27.6903C71.1165 27.3565 71.7983 27.108 72.544 26.9446C73.2969 26.7741 74.0533 26.6392 74.8132 26.5398C75.8075 26.4119 76.6136 26.3161 77.2315 26.2521C77.8565 26.1811 78.3111 26.0639 78.5952 25.9006C78.8864 25.7372 79.032 25.4531 79.032 25.0483V24.9631C79.032 23.9119 78.7443 23.0952 78.169 22.5128C77.6009 21.9304 76.7379 21.6392 75.5803 21.6392C74.38 21.6392 73.4389 21.902 72.7571 22.4276C72.0753 22.9531 71.5959 23.5142 71.3189 24.1108L68.9325 23.2585C69.3587 22.2642 69.9268 21.4901 70.6371 20.9361C71.3544 20.375 72.1357 19.9844 72.9808 19.7642C73.8331 19.5369 74.6712 19.4233 75.495 19.4233C76.0206 19.4233 76.6243 19.4872 77.3061 19.6151C77.995 19.7358 78.6591 19.9879 79.2983 20.3714C79.9446 20.755 80.4808 21.3338 80.907 22.108C81.3331 22.8821 81.5462 23.919 81.5462 25.2188V36H79.032V33.7841H78.9041C78.7337 34.1392 78.4496 34.5192 78.0518 34.924C77.6541 35.3288 77.125 35.6733 76.4645 35.9574C75.804 36.2415 74.9979 36.3835 74.0462 36.3835ZM74.4297 34.125C75.424 34.125 76.2621 33.9297 76.9439 33.5391C77.6328 33.1484 78.1513 32.6442 78.4993 32.0263C78.8544 31.4084 79.032 30.7585 79.032 30.0767V27.7756C78.9254 27.9034 78.6911 28.0206 78.3288 28.1271C77.9737 28.2266 77.5618 28.3153 77.093 28.3935C76.6314 28.4645 76.1804 28.5284 75.7401 28.5852C75.3068 28.6349 74.9553 28.6776 74.6854 28.7131C74.032 28.7983 73.4212 28.9368 72.853 29.1286C72.2919 29.3132 71.8374 29.5937 71.4893 29.9702C71.1484 30.3395 70.978 30.8437 70.978 31.483C70.978 32.3565 71.3011 33.017 71.9474 33.4645C72.6009 33.9048 73.4283 34.125 74.4297 34.125ZM97.726 23.3011L95.4675 23.9403C95.3255 23.5639 95.1159 23.1982 94.839 22.843C94.5691 22.4808 94.1998 22.1825 93.731 21.9482C93.2623 21.7138 92.6621 21.5966 91.9306 21.5966C90.9292 21.5966 90.0946 21.8274 89.427 22.2891C88.7665 22.7436 88.4363 23.3224 88.4363 24.0256C88.4363 24.6506 88.6635 25.1442 89.1181 25.5064C89.5726 25.8686 90.2828 26.1705 91.2488 26.4119L93.6777 27.0085C95.1408 27.3636 96.231 27.907 96.9483 28.6385C97.6657 29.3629 98.0243 30.2969 98.0243 31.4403C98.0243 32.3778 97.7544 33.2159 97.2147 33.9545C96.682 34.6932 95.9363 35.2756 94.9775 35.7017C94.0186 36.1278 92.9036 36.3409 91.6323 36.3409C89.9632 36.3409 88.5819 35.9787 87.4881 35.2543C86.3944 34.5298 85.7019 33.4716 85.4107 32.0795L87.7971 31.483C88.0243 32.3636 88.454 33.0241 89.0861 33.4645C89.7253 33.9048 90.5598 34.125 91.5897 34.125C92.7615 34.125 93.6919 33.8764 94.3809 33.3793C95.0769 32.875 95.4249 32.2713 95.4249 31.5682C95.4249 31 95.226 30.5241 94.8283 30.1406C94.4306 29.75 93.8198 29.4588 92.9959 29.267L90.2686 28.6278C88.7701 28.2727 87.6692 27.7223 86.9661 26.9766C86.2701 26.2237 85.9221 25.2827 85.9221 24.1534C85.9221 23.2301 86.1813 22.4134 86.6998 21.7031C87.2253 20.9929 87.9391 20.4354 88.8411 20.0305C89.7502 19.6257 90.78 19.4233 91.9306 19.4233C93.5499 19.4233 94.8212 19.7784 95.7445 20.4886C96.6749 21.1989 97.3354 22.1364 97.726 23.3011ZM103.428 42.1364C103.002 42.1364 102.622 42.1009 102.288 42.0298C101.955 41.9659 101.724 41.902 101.596 41.8381L102.235 39.6222C102.846 39.7784 103.386 39.8352 103.854 39.7926C104.323 39.75 104.739 39.5405 105.101 39.1641C105.47 38.7947 105.808 38.1946 106.113 37.3636L106.582 36.0852L100.531 19.6364H103.258L107.775 32.6761H107.945L112.462 19.6364H115.19L108.244 38.3864C107.931 39.2315 107.544 39.9311 107.082 40.4851C106.621 41.0462 106.085 41.4616 105.474 41.7315C104.87 42.0014 104.188 42.1364 103.428 42.1364ZM129.929 14.1818V36H127.287V14.1818H129.929ZM137.399 26.1562V36H134.885V19.6364H137.314V22.1932H137.527C137.911 21.3622 138.493 20.6946 139.274 20.1903C140.056 19.679 141.064 19.4233 142.3 19.4233C143.408 19.4233 144.377 19.6506 145.208 20.1051C146.039 20.5526 146.686 21.2344 147.147 22.1506C147.609 23.0597 147.84 24.2102 147.84 25.6023V36H145.325V25.7727C145.325 24.4872 144.992 23.4858 144.324 22.7685C143.656 22.044 142.74 21.6818 141.575 21.6818C140.773 21.6818 140.056 21.8558 139.423 22.2038C138.798 22.5518 138.305 23.0597 137.943 23.7273C137.58 24.3949 137.399 25.2045 137.399 26.1562ZM159.55 19.6364V21.767H151.07V19.6364H159.55ZM153.542 15.7159H156.056V31.3125C156.056 32.0227 156.159 32.5554 156.365 32.9105C156.578 33.2585 156.848 33.4929 157.175 33.6136C157.509 33.7273 157.86 33.7841 158.229 33.7841C158.506 33.7841 158.734 33.7699 158.911 33.7415C159.089 33.706 159.231 33.6776 159.337 33.6562L159.849 35.9148C159.678 35.9787 159.44 36.0426 159.135 36.1065C158.83 36.1776 158.442 36.2131 157.974 36.2131C157.263 36.2131 156.567 36.0604 155.886 35.755C155.211 35.4496 154.65 34.9844 154.202 34.3594C153.762 33.7344 153.542 32.946 153.542 31.9943V15.7159ZM170.017 36.3409C168.441 36.3409 167.081 35.9929 165.937 35.2969C164.801 34.5938 163.924 33.6136 163.306 32.3565C162.695 31.0923 162.39 29.6222 162.39 27.946C162.39 26.2699 162.695 24.7926 163.306 23.5142C163.924 22.2287 164.783 21.2273 165.884 20.5099C166.992 19.7855 168.284 19.4233 169.762 19.4233C170.614 19.4233 171.456 19.5653 172.287 19.8494C173.118 20.1335 173.874 20.5952 174.556 21.2344C175.238 21.8665 175.781 22.7045 176.186 23.7486C176.591 24.7926 176.793 26.0781 176.793 27.6051V28.6705H164.179V26.4972H174.236C174.236 25.5739 174.051 24.75 173.682 24.0256C173.32 23.3011 172.801 22.7294 172.127 22.3104C171.459 21.8913 170.671 21.6818 169.762 21.6818C168.76 21.6818 167.894 21.9304 167.162 22.4276C166.438 22.9176 165.88 23.5568 165.49 24.3452C165.099 25.1335 164.904 25.9787 164.904 26.8807V28.3295C164.904 29.5653 165.117 30.6129 165.543 31.4723C165.976 32.3246 166.576 32.9744 167.343 33.4219C168.11 33.8622 169.002 34.0824 170.017 34.0824C170.678 34.0824 171.275 33.9901 171.807 33.8054C172.347 33.6136 172.812 33.3295 173.203 32.9531C173.593 32.5696 173.895 32.0937 174.108 31.5256L176.537 32.2074C176.282 33.0312 175.852 33.7557 175.248 34.3807C174.645 34.9986 173.899 35.4815 173.011 35.8295C172.123 36.1705 171.125 36.3409 170.017 36.3409ZM180.618 36V19.6364H183.047V22.108H183.217C183.515 21.2983 184.055 20.6413 184.836 20.1371C185.618 19.6328 186.498 19.3807 187.478 19.3807C187.663 19.3807 187.894 19.3842 188.171 19.3913C188.448 19.3984 188.657 19.4091 188.799 19.4233V21.9801C188.714 21.9588 188.519 21.9268 188.213 21.8842C187.915 21.8345 187.599 21.8097 187.265 21.8097C186.47 21.8097 185.76 21.9766 185.135 22.3104C184.517 22.6371 184.027 23.0916 183.664 23.674C183.309 24.2493 183.132 24.9062 183.132 25.6449V36H180.618ZM205.658 19.6364L199.607 36H197.05L190.999 19.6364H193.727L198.244 32.6761H198.414L202.931 19.6364H205.658ZM208.977 36V19.6364H211.491V36H208.977ZM210.255 16.9091C209.765 16.9091 209.343 16.7422 208.988 16.4084C208.64 16.0746 208.466 15.6733 208.466 15.2045C208.466 14.7358 208.64 14.3345 208.988 14.0007C209.343 13.6669 209.765 13.5 210.255 13.5C210.745 13.5 211.164 13.6669 211.512 14.0007C211.868 14.3345 212.045 14.7358 212.045 15.2045C212.045 15.6733 211.868 16.0746 211.512 16.4084C211.164 16.7422 210.745 16.9091 210.255 16.9091ZM222.957 36.3409C221.38 36.3409 220.02 35.9929 218.877 35.2969C217.74 34.5938 216.863 33.6136 216.245 32.3565C215.634 31.0923 215.329 29.6222 215.329 27.946C215.329 26.2699 215.634 24.7926 216.245 23.5142C216.863 22.2287 217.722 21.2273 218.823 20.5099C219.931 19.7855 221.224 19.4233 222.701 19.4233C223.553 19.4233 224.395 19.5653 225.226 19.8494C226.057 20.1335 226.813 20.5952 227.495 21.2344C228.177 21.8665 228.72 22.7045 229.125 23.7486C229.53 24.7926 229.732 26.0781 229.732 27.6051V28.6705H217.119V26.4972H227.176C227.176 25.5739 226.991 24.75 226.622 24.0256C226.259 23.3011 225.741 22.7294 225.066 22.3104C224.399 21.8913 223.61 21.6818 222.701 21.6818C221.7 21.6818 220.833 21.9304 220.102 22.4276C219.377 22.9176 218.82 23.5568 218.429 24.3452C218.039 25.1335 217.843 25.9787 217.843 26.8807V28.3295C217.843 29.5653 218.056 30.6129 218.482 31.4723C218.916 32.3246 219.516 32.9744 220.283 33.4219C221.05 33.8622 221.941 34.0824 222.957 34.0824C223.617 34.0824 224.214 33.9901 224.747 33.8054C225.286 33.6136 225.752 33.3295 226.142 32.9531C226.533 32.5696 226.835 32.0937 227.048 31.5256L229.477 32.2074C229.221 33.0312 228.791 33.7557 228.188 34.3807C227.584 34.9986 226.838 35.4815 225.95 35.8295C225.063 36.1705 224.065 36.3409 222.957 36.3409ZM237.264 36L232.279 19.6364H234.921L238.458 32.1648H238.628L242.122 19.6364H244.807L248.259 32.1222H248.429L251.966 19.6364H254.608L249.622 36H247.151L243.571 23.429H243.316L239.736 36H237.264Z" fill="#87CF23"/>
<path d="M22 12H33V14H22V12Z" fill="#222629"/>
<path d="M22 18H33V20H22V18Z" fill="#222629"/>
<path d="M22 23H33V26H22V23Z" fill="#222629"/>
<path d="M22 28H33V31H22V28Z" fill="#222629"/>
<path d="M22 33H33V37H22V33Z" fill="#222629"/>
<path d="M16 12H18V14H16V12Z" fill="#222629"/>
<path d="M16 18H18V20H16V18Z" fill="#222629"/>
<path d="M16 23H18V26H16V23Z" fill="#222629"/>
<path d="M16 28H18V31H16V28Z" fill="#222629"/>
<path d="M16 33H18V37H16V33Z" fill="#222629"/>
<path d="M39.25 3H11.75C11.0207 3 10.3212 3.29632 9.80546 3.82376C9.28973 4.35121 9 5.06658 9 5.8125V45.1875C9 45.9334 9.28973 46.6488 9.80546 47.1762C10.3212 47.7037 11.0207 48 11.75 48H39.25C39.9793 48 40.6788 47.7037 41.1945 47.1762C41.7103 46.6488 42 45.9334 42 45.1875V5.8125C42 5.06658 41.7103 4.35121 41.1945 3.82376C40.6788 3.29632 39.9793 3 39.25 3ZM39.25 45.1875H11.75V5.8125H39.25V45.1875Z" fill="#222629"/>
<path d="M21 11H32V13H21V11Z" fill="#87CF23"/>
<path d="M21 17H32V19H21V17Z" fill="#87CF23"/>
<path d="M21 22H32V25H21V22Z" fill="#87CF23"/>
<path d="M21 27H32V30H21V27Z" fill="#87CF23"/>
<path d="M21 32H32V36H21V32Z" fill="#87CF23"/>
<path d="M15 11H17V13H15V11Z" fill="#87CF23"/>
<path d="M15 17H17V19H15V17Z" fill="#87CF23"/>
<path d="M15 22H17V25H15V22Z" fill="#87CF23"/>
<path d="M15 27H17V30H15V27Z" fill="#87CF23"/>
<path d="M15 32H17V36H15V32Z" fill="#87CF23"/>
<path d="M38.25 2H10.75C10.0207 2 9.32118 2.29632 8.80546 2.82376C8.28973 3.35121 8 4.06658 8 4.8125V44.1875C8 44.9334 8.28973 45.6488 8.80546 46.1762C9.32118 46.7037 10.0207 47 10.75 47H38.25C38.9793 47 39.6788 46.7037 40.1945 46.1762C40.7103 45.6488 41 44.9334 41 44.1875V4.8125C41 4.06658 40.7103 3.35121 40.1945 2.82376C39.6788 2.29632 38.9793 2 38.25 2ZM38.25 44.1875H10.75V4.8125H38.25V44.1875Z" fill="#87CF23"/>
</svg>
