<svg width="100" height="100" viewBox="0 0 100 100" fill="none" xmlns="http://www.w3.org/2000/svg">
<path d="M94.4444 0H5.55556C4.08213 0 2.66905 0.554514 1.62719 1.54156C0.585317 2.5286 0 3.86731 0 5.2632V18.8949C0 21.6475 1.18333 24.3528 3.23889 26.3002L33.3333 54.811V94.7376C33.3344 95.6343 33.5771 96.5159 34.0383 97.2989C34.4996 98.082 35.1641 98.7405 35.9691 99.2122C36.7741 99.6839 37.6928 99.9531 38.6384 99.9944C39.5839 100.036 40.5248 99.8477 41.3722 99.4482L63.5944 88.9218C65.4778 88.027 66.6667 86.2059 66.6667 84.2112V54.811L96.7611 26.3002C98.8167 24.3528 100 21.6475 100 18.8949V5.2632C100 3.86731 99.4147 2.5286 98.3728 1.54156C97.3309 0.554514 95.9179 0 94.4444 0ZM57.1833 48.9109C56.6664 49.3988 56.2565 49.9788 55.9771 50.6174C55.6978 51.256 55.5545 51.9407 55.5556 52.632V80.9585L44.4444 86.2217V52.632C44.4455 51.9407 44.3022 51.256 44.0229 50.6174C43.7435 49.9788 43.3336 49.3988 42.8167 48.9109L11.1111 18.8949V10.5264H88.8944L88.9056 18.858L57.1833 48.9109Z" fill="#C9C9C9"/>
</svg>
